<?xml version="1.0" encoding="UTF-8"?>
<svg xmlns="http://www.w3.org/2000/svg" xmlns:xlink="http://www.w3.org/1999/xlink" width="595pt" height="842pt" viewBox="0 0 595 842" version="1.1">
<defs>
<clipPath id="clip1">
  <path d="M 0 127.5 L 310 127.5 L 310 342 L 0 342 Z M 0 127.5 "/>
</clipPath>
</defs>
<g id="surface1">
<path style=" stroke:none;fill-rule:nonzero;fill:rgb(49.815369%,79.893494%,16.540527%);fill-opacity:1;" d="M 80.96875 206.234375 C 85.679688 202.425781 91.671875 200.140625 98.207031 200.140625 L 164.175781 200.140625 C 171.839844 192.785156 180.40625 185.023438 189.839844 177.140625 L 82.773438 177.140625 C 68.714844 177.140625 56.597656 185.433594 51.03125 197.390625 C 60.402344 199.613281 70.539062 202.492188 80.96875 206.234375 "/>
<path style=" stroke:none;fill-rule:nonzero;fill:rgb(49.815369%,79.893494%,16.540527%);fill-opacity:1;" d="M 235.769531 228.011719 L 235.769531 337.707031 C 235.769531 352.855469 223.488281 365.140625 208.339844 365.140625 L 98.207031 365.140625 C 83.054688 365.140625 70.773438 352.855469 70.773438 337.707031 L 70.773438 278.503906 C 63.511719 271.660156 55.84375 265.261719 47.773438 259.339844 L 47.773438 353.140625 C 47.773438 372.46875 63.441406 388.140625 82.773438 388.140625 L 223.769531 388.140625 C 243.101562 388.140625 258.769531 372.46875 258.769531 353.140625 L 258.769531 212.140625 C 258.769531 209.230469 258.410156 206.410156 257.742188 203.710938 C 250.574219 211.285156 243.1875 219.410156 235.769531 228.011719 "/>
<g clip-path="url(#clip1)" clip-rule="nonzero">
<path style=" stroke:none;fill-rule:nonzero;fill:rgb(49.815369%,79.893494%,16.540527%);fill-opacity:1;" d="M 0 209.964844 C 0 209.964844 83.335938 212.59375 135.964844 260.839844 C 135.964844 260.839844 204.386719 168.761719 309.648438 127.507812 C 309.648438 127.507812 184.210938 227.578125 140.351562 341.140625 C 140.351562 341.140625 107.019531 253.824219 0 209.964844 "/>
</g>
<path style=" stroke:none;fill-rule:nonzero;fill:rgb(76.057434%,12.799072%,17.027283%);fill-opacity:1;" d="M 692.769531 337.707031 C 692.769531 352.855469 680.488281 365.140625 665.339844 365.140625 L 555.203125 365.140625 C 540.054688 365.140625 527.769531 352.855469 527.769531 337.707031 L 527.769531 227.574219 C 527.769531 212.421875 540.054688 200.140625 555.203125 200.140625 L 665.339844 200.140625 C 680.488281 200.140625 692.769531 212.421875 692.769531 227.574219 Z M 680.769531 177.140625 L 539.769531 177.140625 C 520.441406 177.140625 504.769531 192.808594 504.769531 212.140625 L 504.769531 353.140625 C 504.769531 372.46875 520.441406 388.140625 539.769531 388.140625 L 680.769531 388.140625 C 700.101562 388.140625 715.769531 372.46875 715.769531 353.140625 L 715.769531 212.140625 C 715.769531 192.808594 700.101562 177.140625 680.769531 177.140625 "/>
<path style=" stroke:none;fill-rule:nonzero;fill:rgb(76.057434%,12.799072%,17.027283%);fill-opacity:1;" d="M 672.742188 229.863281 L 663.046875 220.167969 C 659.140625 216.261719 652.808594 216.261719 648.902344 220.167969 L 610.03125 259.039062 L 571.160156 220.167969 C 567.257812 216.261719 560.925781 216.261719 557.019531 220.167969 L 547.320312 229.863281 C 543.417969 233.769531 543.417969 240.101562 547.324219 244.007812 L 586.195312 282.878906 L 547.324219 321.75 C 543.417969 325.652344 543.417969 331.988281 547.320312 335.890625 L 557.019531 345.589844 C 560.925781 349.492188 567.257812 349.492188 571.160156 345.589844 L 610.03125 306.714844 L 648.902344 345.589844 C 652.808594 349.492188 659.140625 349.492188 663.046875 345.589844 L 672.742188 335.890625 C 676.648438 331.988281 676.648438 325.652344 672.742188 321.75 L 633.871094 282.878906 L 672.742188 244.007812 C 676.648438 240.101562 676.648438 233.769531 672.742188 229.863281 "/>
<path style=" stroke:none;fill-rule:nonzero;fill:rgb(49.815369%,79.893494%,16.540527%);fill-opacity:1;" d="M 437.769531 492.246094 C 437.769531 495.859375 433.53125 498.140625 429.917969 498.140625 L 394.769531 498.140625 L 394.769531 534.765625 C 394.769531 538.375 391.015625 541.140625 387.402344 541.140625 L 378.246094 541.140625 C 374.632812 541.140625 372.769531 538.375 372.769531 534.765625 L 372.769531 498.140625 L 335.726562 498.140625 C 332.117188 498.140625 329.769531 495.859375 329.769531 492.246094 L 329.769531 483.089844 C 329.769531 479.476562 332.117188 476.140625 335.726562 476.140625 L 372.769531 476.140625 L 372.769531 440.570312 C 372.769531 436.960938 374.632812 433.140625 378.246094 433.140625 L 387.402344 433.140625 C 391.015625 433.140625 394.769531 436.960938 394.769531 440.570312 L 394.769531 476.140625 L 429.917969 476.140625 C 433.53125 476.140625 437.769531 479.476562 437.769531 483.089844 Z M 383.28125 372.683594 C 319.660156 372.683594 268.082031 424.257812 268.082031 487.878906 C 268.082031 551.5 319.660156 603.074219 383.28125 603.074219 C 446.902344 603.074219 498.476562 551.5 498.476562 487.878906 C 498.476562 424.257812 446.902344 372.683594 383.28125 372.683594 "/>
<path style=" stroke:none;fill-rule:nonzero;fill:rgb(76.057434%,12.799072%,17.027283%);fill-opacity:1;" d="M 632.71875 806.683594 C 587.179688 806.683594 550.261719 769.769531 550.261719 724.226562 C 550.261719 678.6875 587.179688 641.773438 632.71875 641.773438 C 678.257812 641.773438 715.175781 678.6875 715.175781 724.226562 C 715.175781 769.769531 678.257812 806.683594 632.71875 806.683594 Z M 632.71875 615.457031 C 572.644531 615.457031 523.945312 664.15625 523.945312 724.226562 C 523.945312 784.300781 572.644531 833 632.71875 833 C 692.789062 833 741.488281 784.300781 741.488281 724.226562 C 741.488281 664.15625 692.789062 615.457031 632.71875 615.457031 "/>
<path style=" stroke:none;fill-rule:nonzero;fill:rgb(76.057434%,12.799072%,17.027283%);fill-opacity:1;" d="M 684.839844 672.339844 L 684.570312 672.070312 C 678.027344 665.523438 667.414062 665.523438 660.871094 672.070312 L 632.769531 700.171875 L 604.671875 672.070312 C 598.128906 665.523438 587.515625 665.523438 580.972656 672.070312 L 580.703125 672.339844 C 574.15625 678.882812 574.15625 689.496094 580.703125 696.039062 L 608.800781 724.136719 L 580.703125 752.238281 C 574.15625 758.78125 574.15625 769.394531 580.703125 775.9375 L 580.972656 776.207031 C 587.515625 782.753906 598.128906 782.753906 604.671875 776.207031 L 632.769531 748.109375 L 660.871094 776.207031 C 667.414062 782.753906 678.027344 782.753906 684.570312 776.207031 L 684.839844 775.9375 C 691.386719 769.394531 691.386719 758.78125 684.839844 752.238281 L 656.742188 724.136719 L 684.839844 696.039062 C 691.386719 689.496094 691.386719 678.882812 684.839844 672.339844 "/>
<path style=" stroke:none;fill-rule:nonzero;fill:rgb(49.815369%,79.893494%,16.540527%);fill-opacity:1;" d="M 107.996094 654.371094 L 114.03125 660.40625 C 125.570312 654.265625 138.734375 650.773438 152.71875 650.773438 C 167.261719 650.773438 180.917969 654.550781 192.78125 661.160156 L 211.949219 641.992188 C 194.90625 630.902344 174.566406 624.457031 152.71875 624.457031 C 129.378906 624.457031 107.757812 631.8125 90.039062 644.324219 C 96.78125 645.921875 102.972656 649.347656 107.996094 654.371094 "/>
<path style=" stroke:none;fill-rule:nonzero;fill:rgb(49.815369%,79.893494%,16.540527%);fill-opacity:1;" d="M 234.839844 726.011719 C 235.046875 728.390625 235.175781 730.796875 235.175781 733.226562 C 235.175781 778.769531 198.257812 815.683594 152.71875 815.683594 C 107.179688 815.683594 70.261719 778.769531 70.261719 733.226562 C 70.261719 730.128906 70.449219 727.074219 70.78125 724.066406 L 54.539062 707.824219 C 52.355469 705.640625 50.472656 703.230469 48.910156 700.65625 C 45.6875 710.941406 43.945312 721.882812 43.945312 733.226562 C 43.945312 793.300781 92.644531 842 152.71875 842 C 212.789062 842 261.488281 793.300781 261.488281 733.226562 C 261.488281 722.914062 260.054688 712.9375 257.371094 703.480469 L 234.839844 726.011719 "/>
<path style=" stroke:none;fill-rule:nonzero;fill:rgb(49.815369%,79.893494%,16.540527%);fill-opacity:1;" d="M 304.210938 603.183594 C 297.261719 596.234375 285.992188 596.234375 279.039062 603.183594 L 153.785156 728.441406 L 93.851562 668.511719 C 86.902344 661.558594 75.632812 661.558594 68.679688 668.511719 C 61.730469 675.460938 61.730469 686.730469 68.679688 693.683594 L 141.199219 766.199219 C 148.148438 773.148438 159.417969 773.148438 166.367188 766.199219 L 304.210938 628.355469 C 311.164062 621.40625 311.164062 610.136719 304.210938 603.183594 "/>
</g>
</svg>
